<?xml version="1.0" standalone="no"?>
<!DOCTYPE svg PUBLIC "-//W3C//DTD SVG 1.1//EN" "http://www.w3.org/Graphics/SVG/1.1/DTD/svg11.dtd" >
<svg xmlns="http://www.w3.org/2000/svg">
<metadata>Generated by IcoMoon</metadata>
<defs>
<font id="icomoon" horiz-adv-x="1024">
<font-face units-per-em="1024" ascent="960" descent="-64" />
<missing-glyph horiz-adv-x="1024" />
<glyph unicode="&#x20;" horiz-adv-x="512" d="" />
<glyph unicode="&#x78;" glyph-name="x" horiz-adv-x="1001" d="M281 607q-27-1-53-1h-83q-18 0-36.5-6t-32.5-18.5-23-32-9-45.5v-76h912v41q0 16-0.5 30t-0.5 18q0 13-5 29t-17 29.5-31.5 22.5-49.5 9h-133v-97h-438v97zM955 374v-52q0-23 0.5-52t0.5-58-10.5-47.5-26-30-33-16-31.5-4.5q-14-1-29.5-0.5t-29.5 0.5h-32l-45 128h-439l-44-128h-63q-20 0-45 1-25 0-41 9.5t-25.5 23-13.5 29.5-4 30v167h911zM163 311q-12 0-21-8.5t-9-21.5 9-21.5 21-8.5q13 0 22 8.5t9 21.5-9 21.5-22 8.5zM316 187q-8-26-14-48-5-19-10.5-37t-7.5-25-3-15 1-14.5 9.5-10.5 21.5-4h365q23 0 34 12t2 38q-5 13-9.5 30.5t-9.5 34.5q-5 19-11 39h-368zM336 562v228q0 11 2.5 23t10 21.5 20.5 15.5 34 6h188q31 0 51.5-14.5t20.5-52.5v-227h-327z" />
<glyph unicode="&#x79;" glyph-name="x1" horiz-adv-x="1001" d="M281 691q-27-1-53-1h-83q-18 0-36.5-6t-32.5-18.5-23-32-9-45.5v-76h912v41q0 16-0.5 30t-0.5 18q0 13-5 29t-17 29.5-31.5 22.5-49.5 9h-133v-97h-438v97zM955 458v-52q0-23 0.5-52t0.5-58-10.5-47.5-26-30-33-16-31.5-4.5q-14-1-29.5-0.5t-29.5 0.5h-32l-45 128h-439l-44-128h-63q-20 0-45 1-25 0-41 9.5t-25.5 23-13.5 29.5-4 30v167h911zM163 395q-12 0-21-8.5t-9-21.5 9-21.5 21-8.5q13 0 22 8.5t9 21.5-9 21.5-22 8.5zM316 271q-8-26-14-48-5-19-10.5-37t-7.5-25-3-15 1-14.5 9.5-10.5 21.5-4h365q23 0 34 12t2 38q-5 13-9.5 30.5t-9.5 34.5q-5 19-11 39h-368zM336 646v228q0 11 2.5 23t10 21.5 20.5 15.5 34 6h188q31 0 51.5-14.5t20.5-52.5v-227h-327z" />
<glyph unicode="&#x7a;" glyph-name="x2" horiz-adv-x="1001" d="M281 607q-27-1-53-1h-83q-18 0-36.5-6t-32.5-18.5-23-32-9-45.5v-76h912v41q0 16-0.5 30t-0.5 18q0 13-5 29t-17 29.5-31.5 22.5-49.5 9h-133v-97h-438v97zM955 374v-52q0-23 0.5-52t0.5-58-10.5-47.5-26-30-33-16-31.5-4.5q-14-1-29.5-0.5t-29.5 0.5h-32l-45 128h-439l-44-128h-63q-20 0-45 1-25 0-41 9.5t-25.5 23-13.5 29.5-4 30v167h911zM163 311q-12 0-21-8.5t-9-21.5 9-21.5 21-8.5q13 0 22 8.5t9 21.5-9 21.5-22 8.5zM316 187q-8-26-14-48-5-19-10.5-37t-7.5-25-3-15 1-14.5 9.5-10.5 21.5-4h365q23 0 34 12t2 38q-5 13-9.5 30.5t-9.5 34.5q-5 19-11 39h-368zM336 562v228q0 11 2.5 23t10 21.5 20.5 15.5 34 6h188q31 0 51.5-14.5t20.5-52.5v-227h-327z" />
<glyph unicode="&#x343a;" glyph-name="uni343A" d="M872 823q28 0 47.5-19.5t19.5-47.5v-51q0-28-19.5-47.5t-47.5-19.5h-742q-28 0-47.5 19.5t-19.5 47.5v51q0 28 19.5 47.5t47.5 19.5h742zM872 510q28 0 47.5-19.5t19.5-47.5v-51q0-28-19.5-47.5t-47.5-19.5h-742q-28 0-47.5 19.5t-19.5 47.5v51q0 28 19.5 47.5t47.5 19.5h742zM872 197q28 0 47.5-19.5t19.5-47.5v-51q0-28-19.5-47.5t-47.5-19.5h-742q-28 0-47.5 19.5t-19.5 47.5v51q0 28 19.5 47.5t47.5 19.5h742z" />
<glyph unicode="&#x3448;" glyph-name="uni3448" d="M806 173q0-25-10-46.5t-27.5-38-41-26-50.5-9.5h-355q-27 0-50.5 9.5t-41 26-27.5 38-10 46.5v670q0 25 10 47t27.5 38.5 41 26 50.5 9.5h355q27 0 50.5-9.5t41-26 27.5-38.5 10-47v-670zM725 795h-452v-573h452v573zM499 194q-21 0-36.5-15t-15.5-37q0-21 15.5-36.5t36.5-15.5q22 0 37 15.5t15 36.5q0 22-15 37t-37 15zM579 880q0 8-5 12.5t-11 4.5h-127q-5 0-10.5-4.5t-5.5-12.5 5-12.5 11-4.5h127q6 0 11 4.5t5 12.5z" />
<glyph unicode="&#x3449;" glyph-name="uni3449" d="M521 686q33 41 70 74 32 27 72.5 49t84.5 19q62-5 103.5-29.5t66-62 33.5-85 6-97.5-17.5-95.5-36-85-47.5-73-52-60.5q-40-41-83.5-76.5t-83-61-72-40.5-50.5-15q-20-1-51 14t-68 40.5-78 60.5-81 74q-26 25-56 58t-56.5 72.5-45.5 85.5-21 98 11 97.5 39 81.5 64 60.5 86 34.5q24 5 48 1.5t47-12 44-21.5 40-27q44-33 84-79z" />
<glyph unicode="&#xe600;" glyph-name="uniE600" d="M284 726q11 0 20-3.5t17-10.5q14-16 14-36v-39q0-11-3.5-20t-10.5-17q-15-14-37-14h-40q-21 0-36 14-5 5-8 11t-5 12.5-2 13.5v39q0 21 15 35 8 8 16.5 11.5t19.5 3.5h40zM808 726q7 0 13-1.5t11.5-5 10.5-7.5q15-16 15-36v-39q0-22-15-36.5t-35-14.5h-326q-7 0-13.5 1.5t-12 5-10.5 8-8.5 10.5-5 12.5-1.5 13.5v39q0 10 3.5 19t11.5 16q5 5 10.5 8.5t12 5 13.5 1.5h326zM284 489q7 0 13.5-2t12.5-5 11-8q7-8 10.5-17t3.5-19v-39q0-11-3.5-19.5t-10.5-16.5q-15-15-37-15h-40q-21 0-36 15-7 8-11 16.5t-4 19.5v39q0 21 15 36t36 15h40zM808 489q10 0 19-4t16.5-11.5 11-16.5 3.5-19v-39q0-11-3.5-19.5t-11.5-16.5q-14-15-35-15h-326q-21 0-36 15-8 8-11.5 16.5t-3.5 19.5v39q0 10 3.5 19t11 16.5 16.5 11.5 20 4h326zM284 251q22 0 36.5-15t14.5-36v-39q0-5-0.5-10t-2.5-9.5-5-8.5l-6-8q-15-15-37-15h-40q-21 0-36 15t-15 36v39q0 21 15 36t36 15h40zM808 251q20 0 35-15t15-36v-39q0-21-14.5-36t-35.5-15h-326q-21 0-36 15-8 7-11.5 16.5t-3.5 19.5v39q0 21 15 36t36 15h326z" />
<glyph unicode="&#xe601;" glyph-name="uniE601" d="M183 879q28 0 47.5-19t19.5-47v-51q0-28-19.5-47.5t-47.5-19.5h-53q-27 0-46.5 19.5t-19.5 47.5v51q0 28 19.5 47t46.5 19h53zM869 879q27 0 46.5-19t19.5-47v-51q0-28-19.5-47.5t-46.5-19.5h-427q-28 0-47.5 19.5t-19.5 47.5v51q0 28 19.5 47t47.5 19h427zM183 568q28 0 47.5-19.5t19.5-47.5v-51q0-27-19.5-46.5t-47.5-19.5h-53q-27 0-46.5 19.5t-19.5 46.5v51q0 28 19.5 47.5t46.5 19.5h53zM869 568q27 0 46.5-19.5t19.5-47.5v-51q0-27-19.5-46.5t-46.5-19.5h-427q-28 0-47.5 19.5t-19.5 46.5v51q0 28 19.5 47.5t47.5 19.5h427zM183 256q28 0 47.5-19.5t19.5-46.5v-51q0-28-19.5-47.5t-47.5-19.5h-53q-27 0-46.5 19.5t-19.5 47.5v51q0 27 19.5 46.5t46.5 19.5h53zM869 256q27 0 46.5-19.5t19.5-46.5v-51q0-28-19.5-47.5t-46.5-19.5h-427q-28 0-47.5 19.5t-19.5 47.5v51q0 27 19.5 46.5t47.5 19.5h427z" />
<glyph unicode="&#xe602;" glyph-name="xiai" d="M534 608q33 42 71 75 33 28 74.5 50.5t86.5 19.5q63-5 105.5-30t68-63.5 34.5-87 6-100-18-98-37-87-48.5-74.5-53.5-62q-41-42-85.5-78.5t-85-62.5-73.5-41.5-52-15.5q-20-1-52 14.5t-69.5 41.5-79.5 62-83 76q-27 26-57.5 59.5t-58 74-47 87.5-21.5 100.5 11.5 100 40 83.5 65.5 62 88 35q25 5 49.5 1.5t48-12 45-22 40.5-27.5q46-34 87-81z" />
<glyph unicode="&#xe603;" glyph-name="pinpai" d="M510.5-51q-5.5 0-9.5 3-40 20-95 61.5t-115.5 101-111.5 125-84.5 140.5-33.5 139q0 55 17 100.5t44.5 75 63 49.5 70 28.5 67.5 8.5q96 0 188-92 92 92 188 92 33 0 67.5-8.5t70-28.5 62.5-49.5 44.5-75 17.5-100.5q0-64-33.5-139t-85-140.5-112-125-115-101-94.5-61.5q-5-3-10.5-3zM323 736q-28 0-56.5-7t-57.5-24-52-41-37-61.5-14-83.5q0-55 29.5-121t75.5-126 101-115.5 106.5-96.5 92.5-63q41 22 92.5 63t106.5 96.5 101 115.5 75.5 126 29.5 121q0 46-14.5 83.5t-37 61.5-51.5 41-57.5 24-56.5 7q-25 0-52.5-10t-47-23-37-28-25.5-23.5-9-10.5q-7-8-17-8v0q-10 0-17 8-2 2-10 10.5t-25 23.5-37 28-47 23-52 10z" />
<glyph unicode="&#xe604;" glyph-name="yiguanzhu" d="M510 577q-27 66-73 109t-96 56.5-101 2.5-90.5-44.5-63.5-94-21-137.5q2-49 22-93t53.5-79 66-61 74.5-57 63-51q46-43 97.5-87t69.5-62q12 12 64 56t103 93q21 21 61 52.5t72 58.5 65.5 62 54 78 25.5 92q7 76-15.5 136t-62.5 92-92.5 42.5-104-3.5-98-55.5-73.5-105.5z" />
<glyph unicode="&#xe605;" glyph-name="huanyipi" d="M989 489h-357l134 133q-51 51-116 78t-136.5 27-136.5-27-115.5-77.5-77.5-115.5-27-136.5 27-137 77.5-116 115.5-77.5 136.5-27 136.5 27 116 78q8 8 16 17l89-78q-66-76-159-119t-199-43q-96 0-184 37.5t-152 101-101.5 151.5-37.5 185 37.5 185 101.5 151.5 152 101.5 184.5 38 183.5-37 153-103l139 140v-357z" />
<glyph unicode="&#xe606;" glyph-name="zhubaoshipin" d="M1013 543q-18 24-188 266-9 15-26 15h-598q-13 0-21-9v0l-1-1q-2-2-4-5-26-42-80.5-131t-83.5-135q-11-18 3-35l2-2q78-99 233-297t231-296q10-13 23-11 11 0 20 11 43 55 217.5 267t267.5 326l2 4q14 17 3 33zM929 558h-184q8 23 29.5 82t33.5 90q47-66 121-172zM501 750q15-22 132-192h-267q107 151 135 192zM659 498q-107-291-157-428-95 267-155 428h312zM690 581q-26 38-126 183h193q-13-35-37.5-102t-29.5-81zM314 587q-35 92-69 177h193q-68-97-124-177zM195 728q32-81 66-170h-170zM284 498q62-166 159-442-193 248-345 442h186zM723 498h201q-89-108-365-446 44 119 164 446z" />
<glyph unicode="&#xe607;" glyph-name="jiajujiancai" d="M175 543q-69 0-117.5 48.5t-48.5 117.5 48.5 117.5 117.5 48.5 117.5-48.5 48.5-117.5-48.5-117.5-117.5-48.5zM175 807q-41 0-70-28.5t-29-69.5 29-70 70-29 69.5 29 28.5 70-28.5 69.5-69.5 28.5zM509.5 543q-68.5 0-117.5 48.5t-49 117.5 49 117.5 117.5 48.5 117.5-48.5 49-117.5-49-117.5-117.5-48.5zM509.5 807q-40.5 0-69.5-28.5t-29-69.5 29-70 69.5-29 69.5 29 29 70-29 69.5-69.5 28.5zM844 543q-69 0-117.5 48.5t-48.5 117.5 48.5 117.5 117.5 48.5 117.5-48.5 48.5-117.5-48.5-117.5-117.5-48.5zM844 807q-41 0-70-28.5t-29-69.5 29-70 70-29 70 29 29 70-29 69.5-70 28.5zM175 202q-69 0-117.5 49t-48.5 117.5 48.5 117 117.5 48.5 117.5-48.5 48.5-117-48.5-117.5-117.5-49zM175 467q-41 0-70-29t-29-69.5 29-69.5 70-29 69.5 29 28.5 69.5-28.5 69.5-69.5 29zM509.5 202q-68.5 0-117.5 49t-49 117.5 49 117 117.5 48.5 117.5-48.5 49-117-49-117.5-117.5-49zM509.5 467q-40.5 0-69.5-29t-29-69.5 29-69.5 69.5-29 69.5 29 29 69.5-29 69.5-69.5 29zM844 202q-69 0-117.5 49t-48.5 117.5 48.5 117 117.5 48.5 117.5-48.5 48.5-117-48.5-117.5-117.5-49zM844 467q-41 0-70-29t-29-69.5 29-69.5 70-29 70 29 29 69.5-29 69.5-70 29zM175-138q-69 0-117.5 48.5t-48.5 117.5 48.5 117.5 117.5 48.5 117.5-48.5 48.5-117.5-48.5-117.5-117.5-48.5zM175 126q-41 0-70-28.5t-29-69.5 29-70 70-29 69.5 29 28.5 70-28.5 69.5-69.5 28.5zM509.5-138q-68.5 0-117.5 48.5t-49 117.5 49 117.5 117.5 48.5 117.5-48.5 49-117.5-49-117.5-117.5-48.5zM509.5 126q-40.5 0-69.5-28.5t-29-69.5 29-70 69.5-29 69.5 29 29 70-29 69.5-69.5 28.5zM844-138q-69 0-117.5 48.5t-48.5 117.5 48.5 117.5 117.5 48.5 117.5-48.5 48.5-117.5-48.5-117.5-117.5-48.5zM844 126q-41 0-70-28.5t-29-69.5 29-70 70-29 70 29 29 70-29 69.5-70 28.5z" />
<glyph unicode="&#xe608;" glyph-name="jiayongdianqi" d="M384 851h-259q-45 0-77.5-32t-32.5-77v-739q0-45 32.5-77t77.5-32h259q46 0 78 32t32 77v739q0 45-32 77t-78 32zM434 3q0-20-14.5-34.5t-35.5-14.5h-259q-21 0-35.5 14.5t-14.5 34.5v739q0 20 14.5 35t35.5 15h259q21 0 35.5-15t14.5-35v-739zM903 851h-259q-46 0-78-32t-32-77v-739q0-45 32-77t78-32h259q45 0 77.5 32t32.5 77v739q0 45-32.5 77t-77.5 32zM953 3q0-20-14.5-34.5t-35.5-14.5h-259q-21 0-35.5 14.5t-14.5 34.5v330h359v-330zM953 393h-359v349q0 20 14.5 35t35.5 15h259q21 0 35.5-15t14.5-35v-349zM115 752h279v-60h-279v60zM115 652h279v-60h-279v60zM115 552h279v-60h-279v60zM675.5 502q-14.5 0-25-10t-10.5-24.5 10.5-25 25-10.5 24.5 10.5 10 25-10 24.5-24.5 10zM675.5 213q14.5 0 24.5 10t10 24.5-10 25-24.5 10.5-25-10.5-10.5-25 10.5-24.5 25-10z" />
<glyph unicode="&#xe609;" glyph-name="shipin" d="M8 432v-176q0-56 19-103.5t46-77 63-53.5 61-34.5 50-17.5v-71h533v71q25 7 50 17.5t61 35 62.5 55 46 80.5 19.5 109v165h-1011zM964 267q0-42-12-78.5t-29.5-61-41.5-44.5-44.5-31-43-19.5-31.5-11-15-3.5l-22-4v-60h-423v60l-23 4q-6 1-15 3.5t-31 11-42.5 19.5-45 30-42 42.5-29 58-11.5 73.5v29h901v-18zM964 322h-901v55h901v-55zM430 763h570v-55h-570v55zM26 763h55v-55h-55v55zM26 653h55v-55h-55v55zM430 653h570v-55h-570v55zM92 456q38 8 58 33.5t23 49.5v207q0 16 10.5 27t19.5 14.5 13 3.5v55q-31 0-64.5-26.5t-33.5-73.5v-201q-6-28-38-35zM202 456q39 8 58.5 33.5t22.5 49.5v207q0 16 10.5 27t19.5 14.5 14 3.5l-1 55q-31 0-64.5-26.5t-33.5-73.5v-201q-5-28-38-35zM312 456q39 8 59 33.5t23 49.5v207q0 16 10 27t19 14.5 14 3.5v55q-32 0-65-26.5t-33-73.5v-201q-6-28-38-35z" />
<glyph unicode="&#xe60a;" glyph-name="muyingwanju" d="M50 448l7-4h468l-110 362-1 2q-2 6-6.5 14t-13 19.5-21 19-26.5 7.5q-8 0-15-2-31-10-35-56-1-9-2-12l-7 7q-23 24-44 24-11 0-22-6-30-17-21-64 2-8 2-11-2 0-5 2-18 7-30 7-23 0-41-21-26-31 3-73 3-5 5-7v0q-1 0-5 1-12 4-20 4-24 0-38-22-22-33 16-73 5-5 7-8-3 0-10 1-9 1-14 1-32 0-46-29-10-19-6.5-36t12-28.5 19.5-18.5zM72 507q2 0 8-1 9-1 14-1 32 0 48 26 21 33-16 72-1 0-2 1 6-1 12-1 25 0 42 23 22 29-5 68-4 6-6 8h1q0 1 0.5 1.5l0.5 0.5q2 0 10-4 17-6 28-6 18 0 32 12 22 19 15 58 21-22 42-22 10 0 20 5 29 13 33 58 1 5 1 8 9-9 15-24l89-292h-381q-3 4-1 10zM291 36q-36 0-61.5-26t-25.5-62 25.5-61.5 61.5-25.5 61.5 25.5 25.5 61.5-25.5 62-61.5 26zM291-86q-14 0-24.5 10t-10.5 24.5 10.5 24.5 24.5 10 24-10 10-24.5-10-24.5-24-10zM581 36q-36 0-61.5-26t-25.5-62 25.5-61.5 61.5-25.5 61.5 25.5 25.5 61.5-25.5 62-61.5 26zM581-86q-14 0-24 10t-10 24.5 10 24.5 24 10 24.5-10 10.5-24.5-10.5-24.5-24.5-10zM988 754q-65 65-133 30-14-8-25-21t-26.5-41.5-16.5-28.5q-58-96-157-266h-598l3-29q1-8 3.5-22t14-50.5 28-71 48.5-75 72-70.5 102.5-50 135.5-20q83 0 150.5 26t109 65 70.5 89 41 94.5 14 85.5l1 28h-134q49 83 91 153 41 69 69 116 14 23 27 34.5t32 9.5 40-23q12-11 26.5-6.5t18 17.5-6.5 26zM439.5 92q-53.5 0-100 12t-79.5 30.5-60.5 44.5-45 51-31 54-20 49.5-10.5 40.5h675q-3-20-8.5-40t-17-49-27-54.5-41.5-51.5-58-44.5-77.5-30.5-99-12z" />
<glyph unicode="&#xe60b;" glyph-name="shumashouji" d="M751 93h-496v684h496v-684zM306 144h394v581h-394v-581zM548 8q0-17-12-29.5t-29.5-12.5-30 12.5-12.5 29.5 12.5 29.5 30 12.5 29.5-12.5 12-29.5zM749-130h-492q-36 0-61.5 25.5t-25.5 61.5v818q0 36 25.5 61.5t61.5 25.5h492q36 0 62-25.5t26-61.5v-818q0-36-26-61.5t-62-25.5zM257 811q-15 0-25.5-10.5t-10.5-25.5v-818q0-14 10.5-24.5t25.5-10.5h492q15 0 25.5 10.5t10.5 24.5v818q0 15-10.5 25.5t-25.5 10.5h-492z" />
<glyph unicode="&#xe60c;" glyph-name="xiebao" d="M321 495.5q0-23.5-16.5-40t-40-16.5-40 16.5-16.5 40 16.5 40 40 16.5 40-16.5 16.5-40zM321 495.5q0-23.5-16.5-40t-40-16.5-40 16.5-16.5 40 16.5 40 40 16.5 40-16.5 16.5-40zM819 495.5q0-23.5-17-40t-40-16.5-39.5 16.5-16.5 40 16.5 40 39.5 16.5 40-16.5 17-40zM882-140h-746q-47 0-80.5 33.5t-33.5 80.5v580q0 47 33.5 80.5t80.5 33.5h746q47 0 80.5-33.5t33.5-80.5v-580q0-47-33.5-80.5t-80.5-33.5zM136 606q-22 0-37-15t-15-37v-580q0-22 15-37t37-15h746q21 0 36.5 15t15.5 37v580q0 22-15.5 37t-36.5 15h-746zM789 502h-63v259q0 22-15 37t-36 15h-332q-21 0-36.5-15t-15.5-37v-259h-62v259q0 47 33.5 80.5t80.5 33.5h332q47 0 80.5-33.5t33.5-80.5v-259z" />
<glyph unicode="&#xe60d;" glyph-name="nvzhuangneiyi" d="M661 366l65 242-119 112-98-73-100 75-118-115 73-241-350-284 143-145 124 107 109-105 122 106 115-107 116 109 113-110 156 145zM413 660l95-72 96 71 70-66-58-212h-208l-64 213zM744 112l-117-110-114 106-121-105-109 105-124-107-75 78 315 255h227l314-255-83-77zM437 747q9 0 15.5 6.5t6.5 15.5-6.5 15.5-15.5 6.5-15-6.5-6-15.5 6-15.5 15-6.5zM505 747q9 0 15.5 6.5t6.5 15.5-6.5 15.5-15.5 6.5-15.5-6.5-6.5-15.5 6.5-15.5 15.5-6.5zM573 747q9 0 15 6.5t6 15.5-6 15.5-15 6.5-15.5-6.5-6.5-15.5 6.5-15.5 15.5-6.5z" />
<glyph unicode="&#xe60e;" glyph-name="huwaiyundong" horiz-adv-x="1036" d="M435 65q-37 0-48 22-6 1-16-1-15-21-48-21h-18q-8 1-14 1-36 1-46 28h-14q-20-17-67-18v0q-39 0-57 20-4 6-7 12-26 3-43 10-19 2-27 26t-10 65q-5 66 27.5 101t80.5 40q22 3 52 3t60-3q46 5 111 47t114 99 50 99q0 27 8 47t18.5 30.5 24 16.5 22 7.5 17.5 1.5q28 0 51-11l3-2q63-31 120-31 30 0 60 8 35 10 63 10 48 0 71-28 19-22 15-52-4-25 0-55 31-60 38-160 1-18 2-22 8-26 7-75t-6-70q-8-38-8-73 0-23-15-36t-35-13h-1l-40.5 0.5t-87.5 1-58 0.5q-22 0-35.5 11.5t-16.5 23.5l-1 5-1 55q-5 2-13 3-16 2-39.5-12t-43.5-31q-26-46-120-53-8-17-22-21.5t-43-5.5h-14zM424 108q6-1 17-1h7q25 1 28 3l0.5 0.5t1 2.5 1.5 4l3 16 17 1q28 0 59.5 8.5t39.5 24.5l2 4 3 3q9 8 23.5 19t44 25.5 52.5 11.5q36-5 47-26 6-12 3-24l1-45q3-3 10-3l187-1q5 0 6 1.5t1 4.5q0 40 10 82 4 19 4.5 62.5t-2.5 54.5q-5 7-7 38-6 93-34 146l-2 6q-7 36-1 73 1 10-5 18-21 24-91 4-35-10-71-10-68 0-140 36l-2 2q-14 7-32 7-7 0-12.5-1.5t-14.5-6.5-14.5-19-6.5-35q-1-53-55.5-120t-128.5-114-131-52h-3q-29 2-59 2-28 0-48-2-12-2-23.5-6.5t-23.5-14-18.5-29-4.5-46.5q2-36 7-51l5-4q15-7 44-8l26-1-6-23q1-6 25-6 28 0 39 6l3 10 14 1h13q16 0 27-2 17-3 24-23l1-1q3-1 8.5-1.5t14.5-0.5q12-1 16-1 9 0 11 1t4 6l4 10 11 3q15 3 29 3 20 0 31-9 7-5 11-13zM574 411.5q0-11.5-8-19.5t-19.5-8-19.5 8-8 19.5 8 19.5 19.5 8 19.5-8 8-19.5zM637 495.5q0-11.5-8-19.5t-19.5-8-19.5 8-8 19.5 8 19.5 19.5 8 19.5-8 8-19.5zM495 353q0-11-8-19.5t-20-8.5-20 8.5-8 20 8 19.5 20 8 20-8 8-20v0z" />
<glyph unicode="&#xe60f;" glyph-name="huazhuangpin" d="M682 515v135l-2 5q-6 17-21 43.5t-38 59.5-48.5 60-56 43.5-57.5 11.5q-82-15-82-209v-149q-25-13-41-38t-16-55v-457q0-43 31-74t74-31h209q44 0 74.5 31t30.5 74v457q0 30-15.5 55t-41.5 38zM425 470h209q17 0 30.5-11t16.5-27h-303q4 16 17 27t30 11zM469 817q27 5 79-56.5t77-120.5v-113h-191v137q0 53 6.5 89.5t14 49 14.5 14.5zM682-35q0-20-14-33.5t-34-13.5h-209q-20 0-34 13.5t-14 33.5v429h305v-429z" />
<glyph unicode="&#xe610;" glyph-name="Tmall" d="M0 527h93v-193h35v193h94v34h-222v-34zM929 399v162h-34v-162q0-27 19-46t46-19h64v34h-64q-12 0-21.5 9t-9.5 22zM801 399v162h-34v-162q0-27 19-46t46-19h36v34h-36q-13 0-22 9t-9 22zM459 559q-15 7-29-4l-33-27q-15-12-36-12t-37 12l-33 27q-12 11-28 4-15-7-15-24v-201h35v184l20-16q26-21 59-21 32 0 58 21l21 16v-184h34v201q-2 17-16 24zM619 561q-26 0-36-24l-88-203h38l32 75h109l32-75h38l-88 203q-11 24-37 24zM580 444l35 80q1 3 4.5 3t4.5-3l35-80h-79z" />
<glyph unicode="&#xe611;" glyph-name="tianmao" d="M560 699h-35v-46h35q22 0 37.5-13.5t19.5-34.5l-83-61 27-37 57 43v-70l-84-62 27-37 57 43v-41q0-64-52-102l-27-20 27-37 27 20q33 24 52 61t19 78v213q0 42-30.5 72.5t-73.5 30.5zM971 667v41h-46v-41h-129v41h-45v-41h-54v-45h54v-44h45v44h129v-44h46v44h54v45h-54zM697 316q0-35 25.5-60.5t61.5-25.5h153q36 0 61.5 25.5t25.5 60.5v232h-327v-232zM743 316v50h95v-91h-54q-17 0-29 12t-12 29zM937 276h-54v91h95v-50q0-17-11.5-29t-29.5-12zM978 412h-95v90h95v-90zM838 502v-90h-95v90h95zM264 549v104h196v45h-438v-45h196v-104q0-8-1-22h-217v-46h209q-18-77-74-134.5t-134-77.5l11-44q80 21 140 75t89 130q29-75 89-130t140-75l11 44q-78 20-134 77.5t-75 134.5h210v46h-217q0 3-0.5 10.5t-0.5 11.5z" />
<glyph unicode="&#xe612;" glyph-name="dingwei" d="M517 354q-83 0-141.5 59.5t-58.5 143.5 58.5 143 141.5 59 141-59 58-143q1-84-57.5-143.5t-141.5-59.5zM517 960q-108 0-199.5-54t-145-147-53.5-202q0-76 27-145.5t75-124.5l258-331q16-20 37.5-20t36.5 20l258 331q105 116 105 270 0 109-53.5 202t-145.5 147-200 54z" />
<glyph unicode="&#xe613;" glyph-name="qichepeijian" horiz-adv-x="1034" d="M917 579h1v119q0 56-39 95t-95 39h-504q-58 0-102-40t-44-94v-119h9q-42-21-71.5-59t-41-75.5-11.5-74.5v-201q0-35 16-66.5t43-51.5q-1-4-1-8v-76q0-14 10.5-24t24.5-10h76q15 0 24 10 10 9 10 24v58h619v-58q0-14 10.5-24t24.5-10h76q15 0 24 10 10 9 10 24v76q0 5-1 10 48 42 48 116v201q0 52-30.5 114.5t-85.5 94.5zM203 698q0 26 24.5 45.5t52.5 19.5h504q27 0 46-19t19-46v-97q-11 1-21 1h-580q-23 0-45-4v100zM780 140h-508v-46h-118q-26 0-46 23t-20 52v201q0 3 0.5 10t4 23 9.5 32 18 34 28 31.5 42.5 23 57.5 9.5h580q36 0 64.5-20t43-48.5 21.5-53 7-41.5v-201q0-30-14.5-52.5t-39.5-22.5h-130v46zM269 449q-49 0-83.5-34.5t-34.5-83.5 34.5-83.5 83.5-34.5 83.5 34.5 34.5 83.5-34.5 83.5-83.5 34.5zM269 282q-20 0-34.5 14.5t-14.5 34.5 14.5 34.5 34.5 14.5 34.5-14.5 14.5-34.5-14.5-34.5-34.5-14.5zM782 449q-47 0-80.5-33.5t-33.5-80.5 33.5-80.5 80.5-33.5 80.5 33.5 33.5 80.5-33.5 80.5-80.5 33.5zM782.5 290q-18.5 0-32 13.5t-13.5 32 13.5 31.5 32 13 31.5-13 13-31.5-13-32-31.5-13.5z" />
<glyph unicode="&#xe614;" glyph-name="jiafangjiashi" d="M354 441h343q34 0 58.5 24.5t24.5 59.5v267q0 35-24.5 59.5t-58.5 24.5h-343q-35 0-59.5-24.5t-24.5-59.5v-267q0-35 24.5-59.5t59.5-24.5zM327 792q0 12 8 19.5t19 7.5h343q11 0 19-7.5t8-19.5v-267q0-11-8-19t-19-8h-343q-11 0-19 8t-8 19v267zM927 555h-55q-36 0-64-26.5t-28-60.5v-50q-14 4-26 4h-457q-13 0-27-4v50q0 36-23.5 61.5t-57.5 25.5h-55q-35 0-63-26.5t-28-60.5v-459q0-34 28-65.5t63-31.5h61v-38h75v38h529v-38h76v38h52q34 0 57 30.5t23 66.5v459q0 37-23 62t-57 25zM270 339q0 11 8 19t19 8h457q11 0 18.5-8t7.5-19v-135q0-12-7.5-19.5t-18.5-7.5h-457q-11 0-19 8t-8 19v135zM950 9q0-14-7.5-27t-15.5-13h-793q-10 0-22 14t-12 26v459q0 11 11 20.5t23 9.5h55q11 0 17.5-9t6.5-21v-348h624v348q0 10 11.5 20t23.5 10h55q11 0 17-9t6-21v-459z" />
<glyph unicode="&#xe615;" glyph-name="jujia" d="M976 336q0 91-77 123-33 14-85 16v0h-734v-290q0-107 41-170.5t101-90.5h-92v-50h651v50h-108q39 16 67 45 26 27 43 62t22.5 68.5 7.5 51.5 1 30q77 6 119.5 47t42.5 108zM704 4q-45-46-121-46h-293q-5 0-11.5 1t-23 6.5-31.5 14-33 26-31 40-21.5 59-8.5 80.5v240h634v-255.5t-3-31.5-8.5-44-18-46.5-30.5-43.5zM814 232v193q41-2 66-12 46-19 46-77 0-95-112-104zM263 876h50v-334h-50v334zM430 876h50v-334h-50v334zM581 876h50v-334h-50v334z" />
<glyph unicode="&#xe616;" glyph-name="yiyaobaojian" d="M781 876h-509q-37 0-63-26t-26-63v-77q0-37 26-63t63-26h509q36 0 62 26t26 63v77q0 37-26 63t-62 26zM811 710q0-13-9-21.5t-21-8.5h-509q-12 0-21 8.5t-9 21.5v77q0 13 9 21.5t21 8.5h509q12 0 21-8.5t9-21.5v-77zM781 602h-509q-37 0-63-26t-26-63v-548q0-37 26-63t63-26h509q36 0 62 26t26 63v548q0 37-26 63t-62 26zM811-35q0-13-9-21.5t-21-8.5h-509q-12 0-21 8.5t-9 21.5v548q0 12 9 21t21 9h509q12 0 21-9t9-21v-548zM632 418q-12 2-23 2-48 0-85-34-36 34-84 34-11 0-23-2-34-6-58.5-27.5t-33.5-53.5q-11-37 0.5-74.5t40.5-64.5q45-40 121-115l37-37 21 20 16 16q75 74 121 116 30 27 41 64.5t1 74.5q-10 32-34 53.5t-58 27.5zM643 242q-47-43-119-114-72 72-118 114-17 15-23.5 36.5t-0.5 41.5q9 34 45 40 7 1 13 1 38 0 59-36l25-43 26 43q21 36 59 36 6 0 13-1 36-6 45-40 6-20-1-41.5t-23-36.5z" />
<glyph unicode="&#xe617;" glyph-name="tushuyinxiang" d="M541.5 449q41.5 0 71 29.5t29.5 71-29.5 71-71 29.5-71-29.5-29.5-71 29.5-71 71-29.5zM541.5 592q17.5 0 30-12.5t12.5-30-12.5-30-30-12.5-30 12.5-12.5 30 12.5 30 30 12.5zM853 515q1 17 1 27 0 90-43 167t-117.5 122-162 45-162-45-117.5-122-43-167q0-10 1-27h-81v-640h796v640h-72zM531.5 818q109.5 0 187-81t77.5-195q0-17-4-41l-1-5h-1q-2-6-4-14-9-31-15-44h-478q-7 14-17 45-2 9-3 12l-2 6q-4 24-4 41 0 114 77.5 195t187 81zM866-67h-679v369h679v58h-679v97h35q12-40 30-65v-1l9-11h541l9 11q17 24 29 66h26v-524z" />
<glyph unicode="&#xe618;" glyph-name="nanzhuang" horiz-adv-x="1031" d="M999 833h-945q-13 0-22-9t-9-22v-294q0-13 9-22.5t22-9.5h116v-514q0-13 9-22t22-9h651q13 0 22 9t9 22v514h116q13 0 22 9.5t9 22.5v294q0 13-9 22t-22 9zM683 770q-7-47-36-77-38-40-113-40-40 0-70.5 11.5t-48 31-26.5 37-13 37.5h307zM233-6v42h588v-42h-588zM967 539h-115q-13 0-22-9t-9-22v-430h-588v430q0 13-9.5 22t-22.5 9h-115v231h247q4-19 10.5-37.5t22-41.5 36-40 55-28.5 77.5-11.5q93 0 144 53 39 42 48 106h241v-231z" />
<glyph unicode="&#xe619;" glyph-name="xie" horiz-adv-x="1031" d="M816 404h-106q-90 0-133 46-41 43-39 111v213q0 13-10 23t-24 10h-448q-14 0-23.5-10t-9.5-23v-773q0-19 16-29 10-16 29-16h929q14 0 24 10t10 24v191q0 47-15.5 86t-38.5 63-53 41-56.5 24-51.5 9zM90 740h381v-177q1-3 0-11.5t2-26.5 7.5-37 17-42 29.5-41q64-68 183-68h104q7-1 18-2.5t36.5-11.5 44.5-25 35-45.5 16-71.5v-46h-874v605zM964 23h-874v45h874v-45zM380.5 701q-12.5 0-21.5-9t-9-22 9-22 21.5-9 21.5 9 9 22-9 22-21.5 9zM380.5 599q-12.5 0-21.5-8.5t-9-21.5 9-22 21.5-9 21.5 9 9 22-9 21.5-21.5 8.5zM380.5 498q-12.5 0-21.5-9t-9-21.5 9-21.5 21.5-9 21.5 9 9 21.5-9 21.5-21.5 9z" />
<glyph unicode="&#xe61a;" glyph-name="chaoshi" d="M834 211l1 1h-11l25 61 126 313h-773l-38 83h-126v-41h84l201-440q-20-21-20-51 0-31 21.5-52.5t53-21.5 53 21.5 21.5 52.5q0 17-7 33h314q-8-16-8-33 0-31 22-52.5t53-21.5 53 21.5 22 52.5q0 29-19 50t-48 24zM783 248l-146 296h75l106-209zM843 398l-69 146h128zM458 212h-84l-153 332h69l168-332h64l-167 332h74l168-332h-139zM669 212l-167 332h67l168-332h-68z" />
<glyph unicode="&#xe61b;" glyph-name="weiguanzhu" d="M285 749v-74q49 0 91-33.5t67-93.5q8-20 27-32.5t41-12.5v0q22 0 40.5 12.5t27.5 32.5q26 63 72 93t92 30q60 0 99-42 48-53 39-151-3-28-15-55.5t-25.5-47.5-39.5-45-42.5-38.5-48.5-38.5q-59-46-84-70-51-49-114-103-1 1-14 12-56 48-103 92-25 23-83 66-33 24-50 37.5t-43.5 38-40 44-24.5 47-12 55.5q-5 106 50 163 39 40 93 40v74zM285 749q-44 0-84-18.5t-70.5-53-48-88.5-14.5-120q1-49 21-93t53.5-78.5 65.5-60.5 74-57 63-50q46-43 97-87t70-62q12 12 63.5 56t101.5 93q21 20 61.5 51.5t72 58 65 61.5 54 78 24.5 92q6 65-9 118t-45.5 86.5-71 51.5-85.5 18q-71 0-134.5-43.5t-97.5-124.5q-35 84-96.5 128t-129.5 44v0z" />
<glyph unicode="&#xe61c;" glyph-name="guanbi" d="M873 120v0 0 0zM928 364q0 113-56 208.5t-151.5 151.5-208.5 56-208.5-56-151.5-151.5-56-208.5 56-208.5 151.5-151.5 208.5-56 208.5 56 151.5 151.5 56 208.5zM512 8q-97 0-179 47.5t-129.5 129.5-47.5 179 47.5 179 129.5 129.5 179 47.5 179-47.5 129.5-129.5 47.5-179-47.5-179-129.5-129.5-179-47.5zM682 234l-128 129 128 127q9 8 9 20.5t-8.5 21.5-21 9-21.5-9l-128-127-127 127q-8 9-20.5 9t-21-9-9-21 8.5-21l127-127-128-126q-9-9-9-21t9-21 21-9 21 9l128 126 128-129q9-9 21.5-9t21 8.5 8.5 21-9 21.5v0z" />
<glyph unicode="&#xe61d;" glyph-name="tianmaoguoji" d="M511 810q-91 0-174-35.5t-143-95-95-142.5-35-174 35-174 95-143 143-95.5 174-35.5 174 35.5 143 95.5 95.5 143 35.5 174-35.5 174-95.5 142.5-143 95-174 35.5v0zM892 377h-147q-1 44-8.5 76.5t-24.5 77.5q10 4 18.5 9t14 8 15.5 10 13 9 15 11.5 14 11.5q45-50 66-98.5t24-114.5v0zM496-18q-17 14-31.5 34t-20.5 30.5-22 44.5-19 40q2 1 10 3.5t10 3 8.5 2.5 9 2.5 8 2 8.5 2 8.5 1.5 10 1 10 0.5 11.5 0.5v-168h-1zM527 743q81-68 126-173-3-1-8-2-56-20-97-21l-23 196h2zM574 738q57-9 112.5-37.5t96.5-67.5q-4-4-13.5-11t-13.5-10-11.5-8.5-13-8.5-13.5-7.5-16-7.5q-6 13-12.5 25t-17 26-17.5 22.5-21.5 24-19 20.5-22 22-18.5 18v0zM497 743v-196q-21 1-40 4.5t-28 6.5-37 12q2 5 10.5 25t11 26 10 22.5 11.5 23.5 12 20 14.5 21 15.5 17.5 19 17.5h1zM343 580q-44 18-89 53 92 88 195 105-67-66-106-158v0zM381 522q28-10 40-13.5t32.5-7.5 43.5-5v-119h-146q1 41 7.5 71t22.5 74v0zM497 326v-125q-21-1-39.5-4t-29-6-37.5-12q-3 9-12.5 30.5t-12 28-7.5 23-6.5 31-1.5 34.5h146zM449-13q-105 18-185 86 43 30 90 48 37-76 95-134v0zM525-18l23 168h12t12-1 9.5-1.5 10-2 9-2 10-2.5 9-2.5 11-3.5 11.5-4q-44-89-115-149h-2zM691 121q14-5 24.5-12.5t21.5-18 22-17.5q-81-68-185-86 6 6 29.5 28.5t35 35 27.5 33 25 37.5v0zM653 179q-26 9-36.5 12t-29 6-39.5 4v125h146q0-20-2-34.5t-6.5-31-7-23-12-28-13.5-30.5v0zM548 377v119q23 1 43 5t32 7.5 40 13.5q16-44 23-74t8-71h-146zM235 590q49-38 97-59-16-45-23.5-77.5t-8.5-76.5h-169q2 63 27.5 109.5t76.5 103.5v0zM131 326h169q0-17 2-32.5t4-25.5 7-25 7.5-21 10.5-25 11-27q-51-21-99-55-30 30-46 48t-33 44-24.5 54.5-8.5 64.5v0zM780 115q-11 8-24.5 20t-25.5 20-28 15q4 8 12 27t10.5 25 7.5 21 7 25 3.5 25.5 2.5 32.5h147q-2-36-9.5-64.5t-24.5-54.5-32.5-44-45.5-48v0z" />
<glyph unicode="&#xe61e;" glyph-name="qua" d="M566 609q89-5 132-11 32-4 69.5-12t47.5-12q6-3 9.5-8t3.5-9l1-4v-23l-262-1v-124q97-2 141-7 33-4 76-12.5t54-12.5q18-7 18-26v-23h-304q-12-17-75-80l-91-88q-35-32-41-44-13-26 22-35l28.5 0.5t69 0.5h235.5q1 0 4 0.5t10.5 3 13.5 7 10.5 14 5.5 22.5q0 14-8.5 24t-16.5 13l-9 3q-1 0-3.5 0.5t-11 1-15.5-0.5q-17-3-21-1-5 3-5 15 0 17-9 29-13 17-38 17-8 0-16-1t-12-3l-5-1q-2-2-3-2l-3 2-10 11q-1 2 0 4 34 33 69 32 53-1 70-50v-2q1-3 5-4 1 0 9 0.5t15.5 0.5 17.5-1q9 0 17.5-2.5t23.5-9 26-16.5 20-29 10-43q-1-48-35-76.5t-80-29.5h-407q-1 1-12-0.5t-28 2.5-33.5 9.5-28.5 20.5-12 36q2 46 46 83l172 167h-255v24q1 20 24 26 87 21 265 31v0 0 0 124l-262 1v28q2 15 17 18 3 0 23 5.5t45.5 11 50.5 8.5l124 13v60q-1 13 6 20 2 2 3.5 4t7.5 4q4 2 7 3l59 17q14 1 19-2 9-7 9-18v-93z" />
<glyph unicode="&#xe61f;" glyph-name="site" d="M743 706q-96 92-232 92t-232-92q-96-93-96-223 0-87 47-162l281-417 282 418q46 74 46 161 0 130-96 223zM511 327q-68 0-116 46t-48 111.5 48 112 116 46.5 116-46.5 48-112-48-111.5-116-46z" />
<glyph unicode="&#xe620;" glyph-name="31guanzhu1" d="M697 824q-32 0-62-12.5t-53.5-34-39.5-40-29-38.5q-13 20-28.5 38.5t-39 40-53.5 34-62 12.5q-98 0-167.5-76.5t-69.5-184.5q0-51 30-114t72-101q54-70 176-173t143-103q22 0 141.5 101.5t175.5 173.5q42 38 72 101.5t30 114.5q0 108-69 184.5t-167 76.5zM878 563q0-41-25.5-93t-60.5-83q-1-2-3-4-46-60-127-130.5t-148-118.5q-193 141-276 250-2 1-4 3-34 31-59.5 83t-25.5 93q0 85 53 145.5t128 60.5q45 0 88-41t70-98q7-14 25-14t26 14q27 57 70 98t88 41q75 0 128-60.5t53-145.5v0z" />
<glyph unicode="&#xe621;" glyph-name="new" d="M154 750v-646h146l-14-208 240 208h344v646h-716zM733 254h-115l-212 234v-234h-115v382h115l212-234v234h115v-382z" />
<glyph unicode="&#xe622;" glyph-name="hot" d="M154 750v-646h146l-14-208 240 208h344v646h-716zM752 240h-134v159h-192v-159h-134v382h134v-148h192v148h134v-382z" />
<glyph unicode="&#xe623;" glyph-name="fenlei" d="M185 147h-76q-10 0-17.5-7t-7.5-17.5 7.5-18 17.5-7.5h76q10 0 17.5 7.5t7.5 18-7.5 17.5-17.5 7zM915 147h-554q-11 0-18-7t-7-17.5 7-18 18-7.5h554q10 0 17.5 7.5t7.5 18-7.5 17.5-17.5 7zM185 475h-76q-10 0-17.5-7.5t-7.5-18 7.5-18 17.5-7.5h76q10 0 17.5 7.5t7.5 18-7.5 18-17.5 7.5zM915 475h-554q-11 0-18-7.5t-7-18 7-18 18-7.5h554q10 0 17.5 7.5t7.5 18-7.5 18-17.5 7.5zM185 802h-76q-10 0-17.5-7.5t-7.5-18 7.5-17.5 17.5-7h76q10 0 17.5 7t7.5 17.5-7.5 18-17.5 7.5zM361 752h554q10 0 17.5 7t7.5 17.5-7.5 18-17.5 7.5h-554q-11 0-18-7.5t-7-18 7-17.5 18-7z" />
<glyph unicode="&#xe624;" glyph-name="youjiantou" d="M744 390q1 3 1 7v2q0 4-1 7l-1 1q0 1-1 2-1 3-3 5l-363 362q-6 6-14.5 6.5t-14.5-4.5l-67-68q-6-5-5.5-13.5t7.5-15.5l283-283-283-283q-7-7-7.5-15.5t5.5-13.5l67-68q6-5 14.5-4.5t14.5 6.5l363 363q2 1 3 4 1 1 1 2l0.5 0.5z" />
<glyph unicode="&#xe625;" glyph-name="tianmaofenqi" d="M882 338v265q0 29-14.5 55.5t-40.5 41.5l-255 153q-27 16-58.5 16t-58.5-16l-255-153q-26-15-40.5-41.5t-14.5-55.5v-313q0-29 14.5-55.5t40.5-41.5l255-153q27-17 58.5-17t58.5 17l258 153q10 7 10 18 0 9-6 15t-15 6q-5 0-11-3v0l-258-153q-36-22-73 0l-255 153q-35 21-35 61v313q0 40 35 61l255 153q37 22 73 0l255-153q35-21 35-61v-265q0-9 6-15t15-6 15 6 6 15v0zM714 594q0 26-15.5 44t-37.5 18h-295q-22 0-37.5-18t-15.5-44v-66h401v66zM672 570h-317v24q0 8 4 13.5t7 5.5h295q3 0 7-5.5t4-13.5v-24zM313 307q0-26 15.5-44t37.5-18h295q22 0 37.5 18t15.5 44v190h-401v-190zM355 454h317v-147q0-8-4-14t-7-6h-295q-3 0-7 6t-4 14v147zM404 355v-1h42q8 1 13.5 7t5.5 14-5.5 14-13.5 7v0h-42q-8-1-13.5-7t-5.5-14 5.5-13.5 13.5-6.5zM492 355v-1h42q8 1 13.5 7t5.5 14-5.5 14-13.5 7v0h-42q-8-1-13-7t-5-14 5-13.5 13-6.5zM580 355v-1h42q8 1 14 7t6 14-6 14-14 7v0h-42q-8-1-13-7t-5-14 5-13.5 13-6.5z" />
<glyph unicode="&#xe626;" glyph-name="jisutuikuan" d="M880 339v263q0 30-15 56t-40 41l-255 153q-27 16-58 16t-58-16l-255-153q-25-15-40-41t-15-56v-311q0-30 15-56t40-41l255-153q27-16 58-16t58 16l257 153q10 6 10 18 0 9-6 15t-15 6q-5 0-10-3v0l-257-153q-37-22-74 0l-254 153q-35 20-35 61v311q0 41 35 61l254 153q37 22 74 0l254-153q34-20 34-61v-264q0-8 6.5-14.5t15-6.5 15 6.5 6.5 14.5v1zM419 215q-3-15 7-26 9-11 24-11v0q17 0 26 13l255 286 2 4q9 15 0 31-8 14-24 16l-173 43 38 117 1 5q1 14-9 23-9 10-24 9.5t-23-11.5l-219-203-4-5q-9-15 0-32 8-15 25-16l173-29-74-211zM538 429l1 3q3 15-6 26-9 10-22 11l-164 28 173 161-28-88-1-6q-1-13 8-23 8-8 20-9l167-42-208-233z" />
<glyph unicode="&#xe627;" glyph-name="tuihuobaozhang" d="M880 340v264q0 30-15 56t-40 42l-255 153q-27 16-58.5 16t-58.5-16l-255-153q-26-16-41-42t-15-56v-312q0-30 15-56t41-42l255-153q27-16 58.5-16t58.5 16l257 154q11 6 11 18 0 9-6.5 15t-15.5 6q-5 0-10-3v0l-258-153q-17-11-37-11t-37 11l-255 153q-34 20-34 61v312q0 41 34 61l255 153q37 22 74 0l255-153q35-20 35-61v-264q0-9 6-15t14.5-6 15 6 6.5 15v0zM742 394q9 0 15.5 6.5t6.5 15.5v23q0 113-61 179.5t-171 72.5v13q0 9-6 15t-15 6-15-6-6-15v-13q-46-3-86.5-20t-74-47-52.5-77.5-19-107.5v-23q0-9 6.5-15.5t16-6.5 16 6.5 6.5 15.5v2q0 14 10 24.5t24.5 10.5 25-10.5 10.5-24.5h1v-2q0-9 6.5-15.5t15.5-6.5 15.5 6.5 6.5 15.5v2h1q0 14 10 24.5t25 10.5 25.5-10 11.5-25v0-174q-1-13-10-22t-21.5-9-22 9-9.5 22v4q0 9-6.5 15t-15 6-15-6-6.5-15v-3q0-30 22-52t52.5-22 52 22 21.5 52v0 167q1 4 1 6 0 14 10 24.5t24.5 10.5 25-10.5 10.5-24.5v0 0 0-2q0-9 6.5-15.5t16-6.5 16 6.5 6.5 15.5q0 1-0.5 1.5l-0.5 0.5h1q0 14 10 24.5t25 10.5 25-10.5 10-24.5h1l-0.5-0.5t-0.5-1.5q0-9 7-15.5t16-6.5zM684 498q-34 0-58-25-23 25-57 25t-58-25q-23 25-57 25t-58-26q-24 26-58 26-17 0-33-8 10 55 44 92.5t75 52 87 14.5q21 0 41.5-2.5t48.5-12.5 50.5-26 41-47 25.5-71q-17 8-34 8z" />
<glyph unicode="&#xe628;" glyph-name="31huiyuanqia" d="M933 683q0 35-25 60t-60 25h-672q-35 0-60-25t-25-60v-475q0-35 25-60t60-25h672q35 0 60 25t25 60v248q-1 0-1 0.5v1t0.5 1l0.5 0.5v224zM146 679q0 14 10 24.5t25 10.5h662q15 0 25-10.5t10-24.5v-19h-732v19zM146 607h732v-51h-732v51zM878 212q0-14-10-24.5t-25-10.5h-662q-15 0-25 10.5t-10 24.5v291h732v-44l0.5-0.5t0.5-1-0.5-1l-0.5-0.5v-244zM751 344v-136h29v48h27q51 1 52 46-3 40-50 42h-58zM829 301q0-20-24-20h-25v39h25q23-1 24-19zM699 344h29v-136h-29v136zM623 242q-9 23-37 99l-1 3h-31l55-136h27l55 136h-32l-1-3q-27-76-35-99zM213 321q-8 0-13-5t-5-12v-55q0-7 5-12.5t13-5.5h55q7 0 12 5.5t5 12.5v55q0 7-5 12t-12 5h-55z" />
<glyph unicode="&#xe629;" glyph-name="31jifen" d="M512 461q111 0 202 22.5t142.5 62.5 51.5 88.5-51.5 88.5-142.5 62.5-202 22.5-202-22.5-142.5-62.5-51.5-88.5 51.5-88.5 142.5-62.5 202-22.5zM171 634q0 19 24 39.5t66.5 38.5 108.5 29.5 142 11.5 142-11.5 108.5-29.5 66.5-38.5 24-39.5-24-39.5-66.5-38-108.5-29-142-11.5-142 11.5-108.5 29-66.5 38-24 39.5zM871 335l-1 1q-8 6-17 6-10 0-17.5-7.5t-7.5-18.5q0-10 7-17l1-1q18-19 18-37 0-19-24-40t-66.5-39-109-29.5-142.5-11.5-142.5 11.5-109 29.5-66.5 39-24 40q0 21 18 37l1 1q1 0 1 1 6 7 6 16 0 11-7.5 18.5t-17.5 7.5-17-6l-1-1q-36-35-36-74 0-49 51.5-88.5t142-62 201.5-22.5 201.5 22.5 142 62 51.5 88.5q0 39-35 73l-0.5 0.5zM870 525q-8 6-17 6-10 0-17.5-7.5t-7.5-18.5q0-10 7-18 1 0 1-1 18-18 18-37t-24-39.5-66.5-38.5-109-29.5-142.5-11.5-142.5 11.5-109 29.5-66.5 38.5-24 39.5q0 21 18 37l1 1q1 1 1 2 6 7 6 16 0 11-7.5 18.5t-17.5 7.5-17-7q-1 0-1-1-36-34-36-74 0-48 51.5-87.5t142-62 201.5-22.5 201.5 22.5 142 62 51.5 87.5q0 39-36 75-1 0-1 1z" />
<glyph unicode="&#xe62a;" glyph-name="31wode" d="M900 62q-6 81-44.5 153.5t-102.5 122.5l-5 4q-8 4-16 4-32 0-32-25 0-14 12-24v0l4-3q109-78 121-233v-3q0-13 9-22.5t22-9.5 22 9 9 21h1v6zM799 588q0 117-84.5 200t-203 83-202.5-83-84-200q0-63 27-119.5t76-96.5q-88-47-142.5-131t-61.5-183v-7q0-11 8-18.5t19-7.5 18.5 7.5 7.5 18.5v1h1v6q7 93 62 169t140 110q69-32 132-32 65 0 124 28l29 17 24 16q52 40 81 98.5t29 123.5zM512 362q-95 0-162 66.5t-67 160 67 159.5 162 66 162-66 67-159.5-67-160-162-66.5z" />
<glyph unicode="&#xe62b;" glyph-name="31hongbao" d="M443 253h-70q-16 0-27.5-8.5t-11-21.5 11.5-22 27-9h70q16 0 27 9t11 22-11 21.5-27 8.5zM897 155v622q0 21-15 35t-36 14h-203q-19 0-33-11t-18-29q-6-27-29-45t-52.5-18-53 18-28.5 45q-4 18-18.5 29t-32.5 11h-203q-21 0-36.5-14t-15.5-35v-660l1-1v-21q0-21 15-35t36-14h671q21 0 36 14t15 35v60zM814 96h-600q-22 0-30.5 8t-8.5 29v60q1 0 2.5-0.5t2.5-0.5h70q16 0 27 9t11 22-11 21.5-27 8.5h-75v498q0 11 8 18.5t18 7.5l158-1q18 0 24-16 14-39 49-63t78.5-24 78.5 24.5 49 62.5q6 17 24 17h157q11 0 18.5-7.5t7.5-18.5v-499l-3 0.5t-4 0.5h-70q-16 0-27-8.5t-11-21.5 11-22 27-9h70q2 0 5 1h2v-51q0-23-6.5-34.5t-24.5-11.5v0zM640 253h-69q-16 0-27.5-8.5t-11.5-21.5 11.5-22 27.5-9h69q16 0 27.5 9t11 22-11.5 21.5-27 8.5zM529 304h1v90h91v1q15 5 15 21 0 9-6 15t-15 6h-85v34h91v1q15 5 15 21 0 9-6 15t-15 6h-85v19l89 86 4 4-1 1q3 4 3 10 1 9-5 16-6 6-15 6.5t-16-5.5l-80-79-85 84q-6 5-15 4.5t-15-6.5q-11-12-2-26l-1-1 96-93v-20h-91v-1q-15-5-15-20.5t15-20.5v-1h91v-34h-91v-1q-15-4-15-20t15-21v-1h91v-90h1q5-15 21-15t20 15z" />
<glyph unicode="&#xe62c;" glyph-name="tianmaochaoshigouwuche" d="M293.5 210q-22.5 0-38.5-16.5t-16-39 16-38.5 38.5-16 38.5 16 16 38.5-16 39-38.5 16.5zM629 235q-31 0-53-22t-22-53 22-53.5 53-22.5 53.5 22.5 22.5 53.5-22.5 53-53.5 22zM964 752v14q0 16-12 27t-29 11h-167q-27-2-35-26l-46-132h-576q-16 0-27.5-11t-11.5-27v-12q0-16 11.5-27.5t27.5-11.5h544l-19-54h-484q-16 0-27.5-11.5t-11.5-27.5v-12q0-16 11.5-27t27.5-11h453l-20-56h-366q-17 0-28.5-11t-11.5-27v-12q0-16 11.5-27.5t28.5-11.5h399q13-1 24.5 6.5t15.5 20.5l147 418h130q17 0 29 11t12 27v0z" />
<glyph unicode="&#xe62d;" glyph-name="tianmaoguoji1" horiz-adv-x="4304" d="M570 493h427v114h-440v240h394v113h-902v-113h394v-240h-439v-114h426q-30-128-135-239.5t-295-218.5l56-99q67 38 123.5 75.5t120 90 115.5 116.5 85 135q37-78 97-148 119-140 348-269l55 99q-190 107-295 218.5t-135 239.5zM1326 900q-22 21-50.5 34.5t-62 18-53 5.5-48.5 0h-15v-112h16q106 2 135-27 17-17 18-53v-39l-174-104 57-96 118 70q0-45-1-125l-174-105 57-96 117 70v-96q0-19-10-46t-23-44q-23-29-61-59.5t-55-41.5-26-16l55-98q14 8 34 21t65.5 50.5 75.5 74.5q25 32 41 76.5t16 82.5q0 64 1 192 0 245-1 331-1 82-52 132zM1548 684h112v91h239v-91h112v91h108v112h-108v73h-112v-73h-239v73h-112v-73h-106v-112h106v-91zM2119 540v70h-677v-507q0-69 49-118t117-49h344q69 0 118 49t49 118v437zM2007 497v-167h-170v167h170zM1724 497v-167h-170v167h170zM1554 103v114h170v-169h-116q-22 0-38 16.5t-16 38.5zM1952 48h-115v169h170v-114q0-22-16-38.5t-39-16.5zM3019 143v0 190h-113v-82h-150v182h263v109h-263v102h263v109h-619v-109h243v-102h-243v-109h243v-182h-243v-109h619v1zM3201 960h-982v-847q0-73 52-125t125-52h628q73 0 125 52t52 125v847zM3089 113q0-27-19-46t-46-19h-628q-27 0-46 19t-19 46v735h758v-735zM3622 739v0 0zM3569 901q-46 46-131 56v0q-26 3-57 3v0h-55v-1024h112v238q80 55 126 114 25 32 41 76.5t16 82.5v247q1 32 1 45-1 3-1 31-1 82-52 131zM3491 821q17-17 18-53v-115l-71-42v232q36-6 53-22zM3476 358q-16-20-38-41v163l71 42v-75q0-19-10-45.5t-23-43.5zM3627 90l108-32 114 387-107 32zM4189 477l-107-32 114-387 108 32zM3708 953h551v-112h-551v112zM4302 571v112h-638v-112h248v-474q1-39-37-70l51-91q47 28 71.5 70.5t23.5 93.5v471h281z" />
<glyph unicode="&#xe62e;" glyph-name="tianmaochaoshi" horiz-adv-x="4301" d="M563 414h422v112h-435v237h390v112h-892v-112h390v-237h-434v-112h421q-30-127-133.5-237t-291.5-216l55-98q67 38 122.5 75t118 88.5 114 115.5 84.5 134q37-77 96-147 118-139 344-266l55 98q-188 106-292 216t-134 237zM1325 815q-22 22-50.5 35t-62 17.5-53 5.5-48.5 1q-11-1-15-1v-112q5 0 17 1 105 1 134-27 17-17 18-53v-39l-174-104 58-96 116 70v-125l-174-104 58-96 116 70v-96q0-19-10-45.5t-23-43.5q-23-29-60.5-59.5t-54.5-41.5-27-16l55-98q14 8 34.5 21t65.5 50 75 75q25 31 41 75.5t16 82.5v192q1 244 0 330-1 82-52 131zM1546 600h112v90h238v-90h112v90h108v112h-108v73h-112v-73h-238v73h-112v-73h-106v-112h106v-90zM2116 457v69h-676v-506q0-68 49-117t117-49h344q68 0 117 49t49 117v437zM2004 414v-167h-170v167h170zM1722 414v-167h-170v167h170zM1552 20v115h170v-169h-116q-22 0-38 16t-16 38zM1950-34h-116v169h170v-115q0-22-16-38t-38-16zM4301 681v112h-427v78h-112v-78h-421v-112h421v-98h-361v-650h112v538h249v-618h112v618h254v-358q0-19-10-45.5t-24-43.5l-6-8 58-102q20 20 36 40 26 32 42 76.5t16 82.5v470h-366v98h427zM2522 36v169h144v112h-144v129h144v112h-144v122h144v112h-144v80h-112v-80h-163v-112h163v-122h-167v-112h167v-334q-29 25-53 52v153h-112v-294q2-41-38-72l53-94q92 56 97 154 95-76 210-117.5t233-41.5h416v112h-416q-143 0-278 72zM2727 580l56-97q68 40 111 105.5t52 143.5h138v-87q0-21-12.5-38.5t-32.5-23.5l53-99q47 21 75.5 64.5t28.5 96.5v199h-475v-112h111q-8-48-35.5-87.5t-69.5-64.5zM3019 26q73 0 125 52t52 125v237h-473v-414h296zM3084 203q0-27-19-46t-46-19h-184v190h249v-125z" />
<glyph unicode="&#xe62f;" glyph-name="diqiu" horiz-adv-x="1000" d="M862 476q3 59-20 61-42 98-131.5 159t-200.5 61q-97 0-180-48t-131-131-48-181 48-180.5 131-131 180.5-48.5 180.5 48.5 131 131 48 180.5q0 40-8 79zM217 397q0 54 19 104 4-2 15.5-6.5t16.5-9 5-12.5q0-27 1.5-44t6.5-37 17.5-30 31.5-10q3 0 10-3.5t18-14.5 17-27q3-5 9-5t17.5 2.5 18.5 2.5q5 0 5-4.5t-2.5-19.5-2.5-29q0-10 8.5-23t20.5-24.5 24.5-21.5 20.5-16l8-6q0-35 3-59-120 2-204 87.5t-84 205.5zM581 113q8 30 11.5 41.5t11 26.5 19.5 24q23 22 11.5 41t-34.5 16q-11-1-14 12.5t-12 13.5q-10 1-34 22.5t-36 26.5l-18.5 12t-31.5 13q-6 0-13-1.5t-13-3.5-11-3-8 0-3 5q0 13-6 81v4q-1 1 1 0 7-2 19-2 8 0 11.5 14t10.5 14q6 1 28.5-4.5t27.5-2.5q1 2 6-6 3-4 9-15 24-40 32-40 10 0 10 40 0 4-1.5 14t-1.5 18 3 13q7 11 15.5 25.5t14 24 11 18.5 7.5 14 1.5 6.5-8 2.5-19 0-20.5-4q-3-1-3-7t-5-7q-37-8-56 9-9 8-3 17 4 6 18.5 10t26.5 10.5 14 21.5q2 24 5 59 78-12 139.5-61t89.5-121q-117-86-41-153 20-18 44-55-25-68-79.5-117.5t-125.5-66.5z" />
<glyph unicode="&#xe630;" glyph-name="tianmaowangzhi" horiz-adv-x="7284" d="M2601.5 843q-41.5 0-77-16t-57-38.5-37-45.5-21.5-39l-6-16-312-782h163l131 333h426l127-333h174l-311 782q-2 6-6.5 16.5t-21.5 37.5-37.5 47.5-56.5 37-77.5 16.5zM2533 612q1 2 2.5 5.5t7 12 13 15.5 19.5 12.5 27 5.5q22 0 39-13t23-25l6-13 80-210 4-11h-308zM25 699h380v-793h156v793h380v148h-916v-148zM3369 221v622h-156v-694q0-107 68-175t178-68h192v156h-116q-45 0-72.5 5t-50.5 21.5-33 48.5-10 84zM3908 221v622h-156v-694q0-107 68-175t178-68h192v156h-116q-45 0-72.5 5t-50.5 21.5-33 48.5-10 84zM1900 840q-9 3-17.5 5t-16.5 1.5-15.5-1.5-15-4-13-5.5-12.5-6.5-10-6l-7.5-5t-5.5-4q-9-7-34-28t-38.5-31-40-27-48.5-25.5-53-15-64-6.5h-7q-33 0-64 6.5t-52 15-49 25.5-40.5 26.5-39.5 32-34 27.5q-1 1-6 4.5t-8.5 6-11 6.5-14 7-16 5.5-18 3-18.5-1-20-5.5q-58-21-58-105v-829h156v706q1-1 16-9.5t21-12 22.5-12.5 26.5-13.5 28-12.5 31.5-12 32.5-10 36-9 36.5-5 38.5-2h7q35 0 71 7t71.5 21 57 23.5 54.5 27 36 19.5v-706h155v829q7 34-4 63t-46 42zM7197 840q-8 3-16.5 5t-17 1.5-15.5-2-15-4-13.5-5-12-6.5-9.5-6-8-5-5-4q-8-5-35-27.5t-39.5-32-40-26.5-49-25.5-52.5-15-63-6.5h-7q-32 0-63 6.5t-52.5 15-49 25.5-40 26.5-39.5 32-35 27.5q0 1-5 4.5t-9 6-11.5 6.5-14 7-15.5 5.5-18 3-19-1-20-5.5q-58-21-58-105v-829h156v706q2-1 16.5-9.5t20.5-12 22.5-12.5 26.5-13.5 28.5-12.5 32-12 32.5-10 35.5-9 36-5 38.5-2h8q34 0 70 7t72 21 57 23.5 54 27 36 19.5v-706h156v829q6 33-6 62.5t-45 42.5zM4432.5 62q-32.5 0-56-23.5t-23.5-56 23.5-56 56-23.5 56 23.5 23.5 55.5q-3 36-25 58t-54.5 22zM5811 843q-172 0-289-101-141-119-141-369 0-228 119-347 123-123 311-123 123 0 221 54 98 51 155 156 55 97 55 271 0 213-120 333-121 126-311 126zM6007 134q-82-76-196-76-117 0-199 76-83 83-83 242.5t83 242.5q76 76 199 76 120 0 196-76 83-83 83-235-6-177-83-250zM5037 699q119 0 195-76l11-11 87 130q-114 109-293 109-172 0-290-102-141-119-141-369 0-228 120-347 123-123 311-123 123 0 220 54 19 7 48 29l-69 145-4-4q-81-76-195-76-118 0-199 76-83 83-83 242.5t83 242.5q79 80 199 80v0z" />
<glyph unicode="&#xe631;" glyph-name="youjiantou1" d="M695 346v1l-10 10-295 294q-5 5-10 0l-10-10q-5-5 0-10l289-289-289-289q-5-6 0-11l10-10q5-5 10 0l306 306q2 5-1 8z" />
<glyph unicode="&#xe632;" glyph-name="shuaxin" d="M957 235q0 1-1 3t-3 4q-4 5-9 8v1.5t1 1.5h-293q-12 0-20-8t-8-20 8-20 20-8h213q-48-101-143-162.5t-210-61.5q-147 0-257 96.5t-130 239.5h-57q14-109 76-198.5t159-141.5 209-52q124 0 228.5 63t162.5 168v-203q0-11 8.5-19.5t20-8.5 19.5 8.5 8 19.5v280q0 4-2 10zM80 480q0-1-0.5-2l-0.5-1h293q12 0 20 8t8 19.5-8 20-20 8.5h-214q48 101 143.5 162t210.5 61q147 0 256.5-96t130.5-239h56q-13 109-75 198.5t-159 141-209 51.5q-124 0-228.5-63t-163.5-168v203q0 12-8 20t-19.5 8-20-8-8.5-20v-279q0-5 2-10 1-1 2-3t3-4q4-5 9-8z" />
<glyph unicode="&#xe633;" glyph-name="shuaxin1" d="M823 70l81-81-250-46 46 250 80-80q66 71 89 164t-2 186-95 162q-64 65-152 91.5t-178 8.5l-12 61q106 20 208-11t178-107q81-81 110.5-189.5t2-217.5-105.5-191zM217 584q-53-72-68-159t11.5-172 90.5-150q60-60 139-87t164-18l7-61q-99-11-191 21t-162 102q-76 76-107 177t-11.5 204 84.5 186l-83 84 250 45-46-250z" />
<glyph unicode="&#xe634;" glyph-name="shuaxin11" d="M932 401h-56q-19 134-121.5 224t-239.5 90q-104 0-192-54-19-11-19-32 0-15 10.5-26t26.5-11q11 0 21 7 70 43 153 43 107 0 188-68.5t99-172.5h-63q-5 0-9-4t-4-10q0-4 2-7l96-166q4-7 11.5-7t11.5 7v0l96 166q2 3 2 7 0 6-4 10t-9 4zM715 128q-15 0-25-10v0q-78-58-175-58-121 0-206.5 85t-85.5 206v8h63q6 0 10 4t4 9q0 4-2 8l-96 166q-4 6-11.5 6t-11.5-7v0l-96-166q-2-3-2-7 0-5 4-9t9-4h57v-8q0-99 48.5-183t132.5-132.5 183-48.5q123 0 220 74 2 1 3 2l1 1q12 11 12 27 0 15-10.5 26t-25.5 11v0z" />
<glyph unicode="&#xe635;" glyph-name="fanhuidingbu01" d="M928 135q-13 0-23 9l-393 393-393-393q-10-9-23-9t-22.5 9-9.5 22.5 9 22.5l416 416q10 10 23 10t23-10l416-416q9-9 9-22.5t-9.5-22.5-22.5-9z" />
<glyph unicode="&#xe636;" glyph-name="tianmaowenzi" horiz-adv-x="2078" d="M566 404h406v108h-418v228h376v109h-858v-109h373v-228h-415v-108h405q-29-122-129-227.5t-281-208.5l52-94q64 37 117.5 72.5t114 85 110 110.5 81.5 128q30-68 91-141 115-134 332-255l52 94q-181 103-280 208t-129 228zM1299 794q-65 62-206 55h-15v-109h53t15-0.5 14-1.5 15-2.5 13.5-3 13-4 11-6 9.5-7.5q17-17 17-52v-37l-168-99 54-91 112 67v-122l-168-99 54-91 111 67v-92q0-18-9.5-44t-22.5-42q-22-29-56-56.5t-57-42.5l-23-15 52-94q9 4 32 18.5t65 49.5 71 70q24 32 39.5 74.5t15.5 79.5v502q10 76-42 128zM1511 587h109v86h228v-86h108v86h104v109h-104v69h-108v-69h-228v69h-109v-69h-101v-109h101v-86zM2060 515h-650v-487q0-67 47-114t114-47h329q66 0 113 47t47 114v487zM1952 248h-164v161h164v-161zM1682 248h-163v161h163v-161zM1516 30v109h166v-163h-111q-23 0-39 16t-16 38zM1900-24h-112v163h164v-109q0-22-16-38t-36-16v0z" />
<glyph unicode="&#xe637;" glyph-name="tubiao1genghuanlaiyuan" d="M129.5 396q9.5 0 16 6.5t6.5 16.5q21 131 123 220t237 89q99 0 183-49.5t132-132.5h-110q-10 0-16.5-6.5t-6.5-16 6.5-16 16.5-6.5h128q4-1 4 0h27q4 0 8 1 3 1 6 4l4 4q2 3 3 6 2 4 2 7v160q0 9-6.5 15.5t-16 6.5-16.5-6.5-7-15.5v-94q-56 85-146 135t-195 50q-153 0-268-100.5t-137-250.5v-4q0-10 6.5-16.5t16-6.5zM898 354q-9 0-15.5-6.5t-6.5-15.5h-1q-12-140-116.5-236t-246.5-96q-106 0-194 56t-133 149h99q10 0 16.5 6.5t6.5 16-6.5 16-16.5 6.5h-159q-9 0-16-6.5t-7-16.5v-159q0-9 7-16t16.5-7 16 7 6.5 16v109q52-101 149.5-162t214.5-61q75 0 137.5 20t103 50 72.5 71 48.5 76.5 28 74 14.5 56.5 3 30q0 9-6 15.5t-15 6.5z" />
<glyph unicode="&#xe638;" glyph-name="wanbiao" d="M715 335h-256v171h53v-117h203v-54zM800 471v55q0 53-33 94t-84 52v96q0 37-26.5 63.5t-63.5 26.5h-183q-37 0-63.5-26.5t-26.5-63.5v-94q-55-8-91.5-49.5t-36.5-98.5v-308q0-57 36.5-98.5t91.5-49.5v-116q0-36 26.5-62.5t63.5-26.5h183q37 0 63.5 26.5t26.5 62.5v118q51 11 84 52t33 94v98q43 27 43 76v4q0 50-43 75zM410 805h183q15 0 25.5-11t10.5-26v-91h-256v91q0 15 10.5 26t26.5 11zM593-81h-183q-16 0-26.5 10.5t-10.5 25.5v114h256v-114q0-15-10.5-25.5t-25.5-10.5zM747 218q0-40-28.5-68.5t-68.5-28.5h-309q-40 0-68.5 28.5t-28.5 68.5v308q0 40 28.5 68.5t68.5 28.5h309q40 0 68.5-28.5t28.5-68.5v-308z" />
<glyph unicode="&#xe639;" glyph-name="nvxie" d="M348-84q-145 0-235 85-48 45-71 91t-15 85q9 54 70 80 64 27 155 36.5t158 9.5q125 218 237 338 59 63 105.5 102t62.5 47 24 9l6 2 6-1q104-27 135-105 10-26 11.5-55.5t-4.5-58-14.5-54-21-50.5-20.5-40-16-28q-24-38-35-178.5t-9-273.5v-27h-120l2 29 0.5 8t1.5 22 1.5 32.5 1 40.5 1 45 0 47-1.5 46-3 42.5-5 35.5q-16 86-44 86-15 0-40-19-10-7-18-23t-17-46-13-45.5-14-55.5q-9-38-14-58t-14.5-50.5-18-48.5-21.5-35.5-28-25.5q-63-41-165-41zM419 249q-33 0-73-2t-112.5-12-116.5-28q-33-14-38-39t14-58.5 56-68.5q76-71 199-71 85 0 138 32 16 9 30.5 43t22 62.5 19.5 79.5q11 46 16 65.5t15.5 52.5 22.5 52 27 30q39 30 72 30 20 0 36.5-10.5t26-23.5 17.5-35 10.5-32 5.5-28q18-85 7-305h8q0 374 54 455 6 9 12.5 20.5t17.5 32 18.5 43 14 47 6 49-9.5 44.5q-18 50-89 71-53-27-159-141-57-60-117.5-148.5t-87-133.5-33.5-59l-7-14h-23z" />
<glyph unicode="&#xe63a;" glyph-name="neiyi" d="M972 303q-13 42-26 71-11 21-25 73-11 40-20 129-3 37-5 56t-7 47.5-11.5 44.5-18 31-26.5 22q-25 10-42 10-34 0-53-28-9-16-9-36.5t9-38.5q49-89 75.5-164.5t18.5-91.5q-6-9-20-9h-15q-4 0-11.5 1t-12.5 1q-61 0-121-32-34-18-66-58-14-15-19.5-21t-18-11-29-5-23.5 4.5-18 19.5q-25 35-55 55-49 34-131 34-19 0-49-2-12-2-32-2-10 0-14 2l0.5 1t0.5 2l1 4q0 2 9 46.5t21 104.5 21 92q8 31 5 59.5t-16 45.5q-17 20-38 20-32 0-53-39-15-30-18-64t2-59q5-43 1-64-1-11-2-28.5t-1-20.5q-1-36-5.5-54t-18.5-33q-40-37-58-106.5t-12-161.5q4-54 26.5-101t68-79.5 106.5-32.5q62 0 132 36 32 16 57 36t38.5 36 23.5 38 13.5 32.5 7.5 28.5q9-39 30-78 28-56 93.5-93.5t136.5-37.5q75 0 131 42 49 35 71 93.5t20.5 116.5-19.5 116zM785 709q-6 10-1 22 3 3 7 3 8 0 20-5 25-12 37-153-25 65-63 133zM195 715q2 4 3 5 8-21-2-51-1-7-5-24t-6-25v2q-3 24-1.5 49t11.5 44zM867 18q-42-31-99-31-56 0-108 29.5t-74 73.5q-23 46-28 81-2 9-3.5 13.5t-6 13-13.5 13-21 4.5q-7 0-13-1-15-2-25-13t-13.5-20.5-5.5-24.5q-5-20-9-32t-15.5-32-33-38-53.5-35q-62-29-109-29-65 0-103.5 48t-43.5 115q-6 79 7.5 138t44.5 88q1 2 3 3 2-5 5-8 16-22 60-22 5 0 17 0.5t18 0.5q30 2 46 2 66 0 102-24 23-16 41-43 12-15 19-22.5t25-15.5 41-8q28 0 50 10t31 19 25 27q25 30 51 45 49 25 96 25 14 0 21-1 3 0 8.5-0.5t8.5-0.5q43 0 64 31 2 2 2 4 8-26 19-51 7-13 22-62 17-49 19.5-97.5t-14-96-55.5-76.5z" />
<glyph unicode="&#xe63b;" glyph-name="youjiantou11" d="M274-148q-9 0-15.5 6.5t-6.5 15.5 6 16l470 469-470 470q-6 6-6 15.5t6.5 16 15.5 6.5 16-7l485-485q6-6 6-15.5t-6-15.5l-485-485q-7-7-16-7z" />
<glyph unicode="&#xe63c;" glyph-name="fanhuidingbu" d="M888 303l-347 348q-6 6-14 9-2 1-3 1-5 1-9 1-3 1-6 0-15-1-26-11v0l-347-348q-12-12-12-29t12-29 29-12 29 12l318 319 318-319q12-12 29-12t29 12 12 29-12 29z" />
<glyph unicode="&#xe63d;" glyph-name="shuiguo" d="M768 454q-49 0-90-23-18 29-23.5 44t-10.5 41q-12 71 3 139 2 9 4 17h2l-1 4 3 6 9 24h101q12 0 20 8t8 19.5-8 19.5-20 8h-327q-12 0-20-8t-8-19.5 8-19.5 20-8h129q-49-20-93-57-26-23-48-50-48-60-70-113-7-15-11-28-19 3-34 3-102 0-174-72t-72-174 72-174 173.5-72 173.5 72 72 174q0 76-42.5 138t-110.5 90q3 10 8 22 20 47 63 101 18 23 40 42 35 29 77 47-14-74-1-150 6-33 16-56t43-65q4-6 10-9 15-9 29 1 35 27 80 27 55 0 94.5-39.5t39.5-95-39.5-95-95-39.5-94.5 39.5-39 94.5q0 35 17 66 5 9 2 19.5t-12.5 15.5-19.5 2-15-12q-24-42-24-91 0-76 54.5-130.5t131.5-54.5 131 54.5 54 131-54 131-131 54.5zM495 214.5q0-76.5-54-130.5t-130.5-54-130.5 54-54 130.5 54 130.5 130.5 54 130.5-54 54-130.5zM289 329h-4q-3-1-7-2-40-11-64-43-19-25-23-51v0 0q-1-11 5.5-19.5t16.5-9.5 17.5 5 9.5 16v0q2 14 13 28 16 21 43 27v0q20 5 20 24 0 10-8 17.5t-19 7.5z" />
<glyph unicode="&#xe63e;" glyph-name="dianpu" d="M881 633h-740l-77-201q0-45 32.5-77.5t78.5-32.5q47 0 80 32t33 78q0-45 32.5-77.5t78.5-32.5q47 0 80 32t33 78q0-45 32.5-77.5t78.5-32.5q47 0 79.5 32t32.5 78q0-45 33-77.5t79-32.5q47 0 80 32t33 78zM819 287v-256h-614v256h-64v-269q0-17 15.5-34t32.5-17h644q17 0 33 17t16 34v269h-63zM881 634v0l2-1zM192 684h640q16 0 27 11t11 27.5-11 27.5-27 11h-640q-16 0-27-11t-11-27.5 11-27.5 27-11z" />
<glyph unicode="&#xe63f;" glyph-name="miaoxiansheng" d="M590 322q-21-21-26.5-48t-0.5-47 14-35l22 11q-1 3-2.5 8t-2.5 16.5 0.5 21.5 9.5 21 22 17q25 11 20 32-4 19-24 19-16 0-32-16zM207 351q-12 0-27-8-25-15-38-39.5t-11.5-45 4.5-37.5l24 5q0 1-1 7.5t1.5 17 6.5 20.5 14.5 18.5 25.5 11.5q14 2 21.5 10.5t6.5 17.5-8 15.5-19 6.5zM949 687q-10-2-26.5-3.5t-59.5 5-75 24.5q-17 10-50 34-64 47-100 53-16 2-28 2-55 0-85-45-25 31-49 68l-4 6h-7q-4 0-15-9-36-28-64-60t-48-67.5-33-64.5-23.5-69.5-15-63-11.5-63.5q-6-35-9-52-10 6-20 9-8 2-16 3-43 4-78-25-45-38-51-111-4-61 41-109 44-46 112-53t121 30 61 99q9 72-27 118-29 36-72 40-8 1-16 0-7 0-13-2 2 15 8 46 8 48 14 75t18.5 70 32 79.5 46.5 70.5q-11-40-11-76 0-68 41-120 15-19 38-37.5t38.5-29 43.5-26.5l15-9q39-24 57-41-6 1-12 0-43-4-72-40-36-46-27-118 7-62 61-99 44-31 101-31 10 0 20 1 68 7 112 53 45 48 41 109-6 73-51 111-35 29-78 25-8-1-16-3-12-4-23-11-14 26-48 51-18 13-58 37-51 31-74 49-68 55-68 129 0 49 26 112 20-27 41-50-21-75 22-132 50-68 162-68 22 0 46 3 35 4 71 22t61 37.5 49 44 32.5 35.5 13.5 18l18 24zM304 343q4 1 9 0 26-2 44-25 26-33 19-88-5-44-44-71-41-28-94-23t-87 41q-33 35-30 78 4 56 36 83 20 16 43 16h6q5 0 9-2 13-4 26-16l16-15 18 11q15 10 29 11zM659 332l18-11 16 15q13 12 26 16 4 2 9 2 26 3 48-16 32-27 37-83 3-44-30-78-34-36-87.5-41t-93.5 23q-39 27-45 71-6 55 20 88 18 23 44 25 2 1 5 1 2 0 4-1 14-1 29-11zM729 555q-22-2-42-2-80 0-118 39-31 32-28 80 121-104 262-63 12 3 10.5 14t-13.5 11h-3q-135-18-241 89 18 35 54 35 9 0 21-2 27-5 83-46 34-25 54-36 51-29 125-28-90-82-164-91z" />
<glyph unicode="&#xe640;" glyph-name="31xingdongdian" d="M818 742q-62 62-143 94.5t-163 32.5-163-32.5-143-94.5-94.5-143-32.5-163 32.5-163 94.5-143.5 143-94.5 163-32 163 32 143 94.5 94.5 143.5 32.5 163-32.5 163-94.5 143zM774 173.5q-53-53.5-122.5-81t-139.5-27.5-139.5 27.5-122.5 80.5q-71 72-96.5 167.5t0 191 96.5 166.5 166.5 96.5 191 0 166.5-96.5q53-53 81-122.5t28-140-28-139.5-81-122.5zM472 642q-9 8-20.5 8t-20-8-8.5-19.5 8-19.5l178-171-177-172q-9-7-9-18.5t8.5-20 20.5-8.5q11 0 20 8l197 191q8 8 8 19.5t-8 19.5z" />
<glyph unicode="&#xe641;" glyph-name="jiage" d="M816 751q-61 61-139.5 93.5t-164.5 32.5-164.5-32.5-139-93-93-139-32.5-164.5 32.5-164.5 93-139 139-93 164.5-32.5 164.5 32.5 138.5 93.5q83 82 112 192.5t0 221-111 192.5zM776 184q-53-53-121-81t-143-28-143 28-121 81q-109 109-109 264t109 264q53 53 121 81t143 28 143-28 121-81 81-121 28-143-28-143-81-121zM668 453v0q15 5 15 21 0 9-6 15t-15 6h-130v40l133 132v1q2 3 2 8 1 9-5 16-6 6-16 6-9 0-15-5l-120-119-128 126q-5 4-13 4-12 0-17-6-11-12-2-26l2-4 135-132v-41l-136-1q-15-5-15-20.5t15-20.5l3-1h133v-67l-136-1q-15-5-15-20.5t15-20.5l3-1h133v-133l1-2q5-15 20.5-15t20.5 15l1 4v131l137 1q15 5 15 21 0 9-6.5 15t-15.5 6h-129v67z" />
<glyph unicode="&#xe642;" glyph-name="feiji" d="M702 744v0q-33 0-61-15l-269-128-45 18q-55 21-120 21-66 0-98-22t-42-51q-11-30 0.5-62t34-57 51-47.5 49.5-34.5 31-16l490-190q21-8 43-8 42 0 78 24.5t52 62.5q3 6 9 24l1 2v2l51 142q13 39-14 67-10 10-23 15l-42 16q-16 7-34 7-44 0-69-33l-2-2-17-26-34 13 119 121q25 29 17 68-10 42-54 59l-58 22q-20 8-44 8v0zM702 684q14 0 24-4l58-23q13-5 17-13.5t-3-16.5l-180-184 159-62 43 63q7 10 24 10 7 0 14-3l42-16q4-2 3-5l-50-142-1-3q-7-18-8-21-9-22-31.5-37t-46.5-15q-12 0-23 5l-491 189q-38 15-90 63t-42 77l1 1q11 33 86 33 55 0 101-17l67-26 291 138q16 9 36 9v0z" />
<glyph unicode="&#xe643;" glyph-name="hongxin" d="M513 715q-14 21-30.5 41t-41.5 42.5-57.5 36-66.5 13.5q-103 0-177-81.5t-74-196.5q0-54 32-121t76-107q58-75 187.5-184.5t152.5-109.5 150 108 186 184q45 42 77 109t32 121q0 115-73.5 196.5t-177.5 81.5q-34 0-66-13.5t-57-36-41.5-42.5-30.5-41v0zM540 642q28 60 74 103.5t94 43.5q79 0 135.5-64.5t56.5-154.5q0-43-27-98.5t-64-88.5l-4-4q-48-63-134-138t-157-127q-205 150-294 266l-4 4q-37 32-63.5 87.5t-26.5 98.5q0 90 56 154.5t135 64.5q48 0 94-43.5t75-103.5q8-16 27-16t27 16v0z" />
<glyph unicode="&#xe644;" glyph-name="lanzi" d="M830 648h-122l-127 123q2 8 2 17 0 25-18 43t-43.5 18-44-18-18.5-43q0-11 4-21l-123-119h-144q-49 0-90-34.5t-41-80.5v-27q0-26 14.5-51.5t38.5-44.5l45-244q9-47 46.5-83t87.5-36h424q49 0 86.5 38t47.5 87l44 232q27 19 43.5 46t16.5 56v27q0 46-40 80.5t-89 34.5zM524 724l78-76h-156zM134 533q0 18 20.5 33t41.5 15h75l-20-20q-11-10-11-25t11-25.5 26.5-10.5 26.5 10l73 71h294l73-71q11-10 26.5-10t26 10.5 10.5 25.5-10 25l-21 20h54q21 0 40.5-15t19.5-33v-27q0-19-20-39t-40-20h-634q-20 0-41 20t-21 39v27zM787 183q-5-25-24.5-47t-41.5-22h-424q-22 0-41.5 20t-24.5 45l-38 202h632zM374.5 347q-14.5 0-24.5-9.5t-10-23.5v-133q0-14 10-24t24.5-10 24.5 10 10 24v133q0 14-10 23.5t-24.5 9.5zM512 347q-14 0-24-9.5t-10-23.5v-133q0-14 10-24t24-10 24 10 10 24v133q0 14-10 23.5t-24 9.5zM649.5 347q-14.5 0-24.5-9.5t-10-23.5v-133q0-14 10-24t24.5-10 24.5 10 10 24v133q0 14-10 23.5t-24.5 9.5z" />
<glyph unicode="&#xe645;" glyph-name="shouji" d="M519 200q-22 0-37.5-15.5t-15.5-37 15.5-37 37.5-15.5 37.5 15.5 15.5 37-15.5 37-37.5 15.5zM706 896h-388q-78 0-134-55.5t-56-133.5v-519q0-77 56-132.5t134-55.5h388q79 0 134.5 55.5t55.5 132.5v519q0 78-55.5 133.5t-134.5 55.5zM829 188q0-50-36-86t-87-36h-388q-51 0-87 36t-36 86v44h634v-44zM829 299h-634v408q0 51 36 86.5t87 35.5h383q51 0 89.5-36t38.5-86v-408z" />
<glyph unicode="&#xe646;" glyph-name="yifu" d="M943 530l-207 204q-3 3-8 6-17 17-41 17h-348q-24 0-41-17-4-2-7-6l-208-204q-17-17-17-41.5t17-41.5l130-128q24-23 56-15l-16-107-1-5q0-17 10-31.5t25-21.5h452q16 7 25.5 21.5t9.5 31.5l-17 112q33-8 57 15l129 128q18 17 18 41.5t-18 41.5zM596 703q-30-72-83-72t-85 72h168zM904 485l-129-128q-3-3-6 0l-90 89 40-255q-1-3-4-3h-403q-4 0-5 3l40 255-89-89q-3-3-6 0l-130 128q-1 1-1 3t1 3l206 203 8 7q2 2 3 2h30q7-20 17-38t27-39.5 43-35 57-13.5 57 13 42.5 35 26 40 16.5 38h32q2 0 3-2l214-210q2-1 2-2.5t-2-3.5z" />
<glyph unicode="&#xe649;" glyph-name="icon" d="M139 578h750v-58h-750v58zM832 809h-87v86h-58v-86h-346v86h-58v-86h-86q-48 0-82-34t-34-82v-576q0-48 34-82t82-34h635q47 0 81 34t34 82v576q0 48-34 82t-81 34zM889 117q0-24-17-41t-40-17h-635q-24 0-41 17t-17 41v576q0 24 17 41t41 17h86v-86h58v86h346v-86h58v86h87q23 0 40-17t17-41v-576zM445 116h-40v254l-56-4v30l96 12v-292zM653 116h-40v254l-56-4v30l96 12v-292z" />
<glyph unicode="&#xe900;" glyph-name="notdef" horiz-adv-x="374" d="M34 148v682h272v-682h-272zM68 182h204v614h-204v-614z" />
<glyph unicode="&#xf012b;" glyph-name="uF012B" d="M980 465q21-20 22-44t-16-40q-19-17-44-16t-40 14q-5 4-30.5 28t-61 57.5-76 72-76.5 72.5-62 59-33 31q-32 29-63 28t-61-28q-10-9-37.5-34.5t-63.5-59.5-76-71-74-69-58.5-54.5-29.5-26.5q-15-12-40-13t-43 15q-20 18-19 43.5t17 40.5q6 6 37 35t74 69 92.5 86 92 86 73 68.5 35.5 33.5q38 37 82 37.5t75-29.5q6-5 25-23.5t46.5-45 61.5-59.5 69-66.5 68.5-66.5 61.5-59.5 47-45.5zM439 610q25 23 60 24.5t63-24.5q3-3 18-17l38-35q22-21 49.5-47t56.5-52q67-62 150-139v-190q0-22-16.5-39t-44.5-18h-189v155q0 33-31 33h-191q-17 0-23.5-10t-6.5-23q0-6-0.5-30.5t-0.5-52.5v-72h-183q-29 0-46 13t-17 37v199q82 75 149 136 28 26 56 51.5t51 46.5 38.5 35.5 19.5 18.5z" />
<glyph unicode="&#xf0148;" glyph-name="uF0148" d="M339 183q19 0 36-7t30-19.5 20-29.5 7-36-7-36-20-29.5-30-20-36-7.5q-20 0-36.5 7.5t-29.5 20-20 29.5-7 36 7 36 20 29.5 29.5 19.5 36.5 7zM755 181q19 0 36.5-7t30-19.5 20-29.5 7.5-36-7.5-36-20-29.5-30-20-36.5-7.5-36 7.5-29.5 20-20 29.5-7.5 36 7.5 36 20 29.5 29.5 19.5 36 7zM923 749q28 0 43.5-7.5t22-18.5 6-23.5-3.5-21.5-12.5-37-21.5-61.5-23.5-66.5-17.5-52q-13-40-33-55.5t-49-15.5h-525l15-90h504q48 0 48-41 0-20-9.5-34.5t-37.5-14.5h-524q-20 0-33.5 9t-22.5 23.5-14.5 31.5-8.5 32q-1 6-5.5 29t-11 57.5-14.5 77-16 85.5q-19 101-43 225h-75q-15 0-25 7.5t-16.5 18-9 22.5-2.5 22q0 20 13.5 33t36.5 13h101q20 0 32-6t19-15 10-19 5-17q2-8 4-22.5t4-29.5q3-18 6-38h684z" />
</font>
</defs>
</svg>
