<?xml version="1.0" encoding="utf-8"?>
<!-- Generator: Adobe Illustrator 16.0.0, SVG Export Plug-In . SVG Version: 6.00 Build 0)  -->
<!DOCTYPE svg PUBLIC "-//W3C//DTD SVG 1.1//EN" "http://www.w3.org/Graphics/SVG/1.1/DTD/svg11.dtd">
<svg version="1.1" id="图层_1" xmlns="http://www.w3.org/2000/svg" xmlns:xlink="http://www.w3.org/1999/xlink" x="0px" y="0px"
	 width="200px" height="200px" viewBox="0 0 200 200" enable-background="new 0 0 200 200" xml:space="preserve">
<rect fill="#EFEFEF" width="200" height="200"/>
<path fill="#BABABA" d="M54.073,100.054c-1.41-23.63,4.047-34.873,14.633-42.033c16.334-11.049,21.839-8.55,32.847-7.161
	c4.11,0.519,12.971-0.275,19.15,1.868c12.695,4.404,14.988,9.465,19.305,19.615c7.623,17.932-3.675,50.554-11.521,56.356
	c-11.219,8.303-13.373,20.695,0.623,31.136c5.426,4.045,14.867,5.174,24.599,9.964C173.945,179.762,177.061,200,177.061,200H22.939
	c0,0,11.205-30.202,39.229-33.314c21.851-2.429,19.524-15.646,19.524-15.646S55.317,120.918,54.073,100.054z"/>
</svg>
